<?xml version="1.0" encoding="utf-8"?>
<!-- Generator: Adobe Illustrator 19.0.0, SVG Export Plug-In . SVG Version: 6.00 Build 0)  -->
<svg version="1.1" id="Layer_1" xmlns="http://www.w3.org/2000/svg" xmlns:xlink="http://www.w3.org/1999/xlink" x="0px" y="0px"
	 viewBox="-440.6 364.7 13.3 14.1" style="enable-background:new -440.6 364.7 13.3 14.1;" xml:space="preserve">
<style type="text/css">
	.st0{fill:none;}
</style>
<g id="AchQnU_1_">
	<g>
		<path d="M-440.3,376c1.4,0.1,2.7-0.2,3.8-1.1c-1.2-0.1-2-0.7-2.4-1.8c0.2,0,0.4,0,0.6,0s0.4,0,0.6-0.1c-1.3-0.4-2-1.2-2-2.6
			c0.4,0.2,0.7,0.3,1.1,0.3c-1.2-1-1.4-2.1-0.8-3.5c1.4,1.7,3.2,2.6,5.4,2.7c0-0.2,0-0.3,0-0.5c0-0.8,0.2-1.5,0.8-2.1
			c0.7-0.6,1.4-0.8,2.3-0.6c0.5,0.1,0.9,0.3,1.3,0.7c0.1,0.1,0.1,0.1,0.2,0.1c0.5-0.1,1-0.3,1.4-0.5c0,0,0.1,0,0.1-0.1l0,0
			c-0.2,0.6-0.6,1-1.1,1.4c0.5,0,1-0.2,1.4-0.4c-0.2,0.4-0.5,0.7-0.8,0.9c-0.1,0.1-0.3,0.2-0.4,0.3c-0.1,0.1-0.1,0.1-0.1,0.2
			c0,0.8-0.1,1.5-0.3,2.2c-0.2,0.6-0.4,1.2-0.7,1.8c-0.3,0.6-0.7,1.1-1.2,1.6c-0.7,0.7-1.5,1.2-2.3,1.5s-1.7,0.5-2.6,0.5
			c-0.6,0-1.2,0-1.8-0.1c-0.6-0.1-1.2-0.3-1.8-0.6C-439.9,376.3-440.1,376.2-440.3,376C-440.4,376.1-440.3,376.1-440.3,376z"/>
	</g>
</g>
<rect x="-440.6" y="364.7" class="st0" width="13.3" height="14.1"/>
</svg>
