<?xml version="1.0" encoding="utf-8"?>
<!-- Generator: Adobe Illustrator 19.0.0, SVG Export Plug-In . SVG Version: 6.00 Build 0)  -->
<svg version="1.1" id="Layer_1" xmlns="http://www.w3.org/2000/svg" xmlns:xlink="http://www.w3.org/1999/xlink" x="0px" y="0px"
	 viewBox="-440.6 364.7 13.3 14.1" style="enable-background:new -440.6 364.7 13.3 14.1;" xml:space="preserve">
<style type="text/css">
	.st0{fill:none;}
</style>
<g id="hApdqT.tif">
	<g>
		<path d="M-438.6,365.6c0.1,0,0.3,0,0.4,0.1c0.6,0.2,1,0.8,1,1.4s-0.5,1.2-1.2,1.3c-0.5,0.1-1,0-1.4-0.3c-0.3-0.2-0.4-0.5-0.5-0.8
			c0,0,0,0,0-0.1s0-0.2,0-0.4l0,0c0.1-0.6,0.4-0.9,1-1.1c0.1,0,0.3-0.1,0.5-0.1C-438.7,365.6-438.7,365.6-438.6,365.6z"/>
		<path d="M-435.9,377.9c0-2.7,0-5.5,0-8.2c0.9,0,1.8,0,2.7,0c0,0.4,0,0.7,0,1.1c0-0.1,0.1-0.1,0.1-0.1c0.6-0.8,1.4-1.2,2.4-1.2
			c0.6,0,1.1,0.1,1.7,0.4c0.5,0.3,0.9,0.8,1.1,1.3c0.3,0.6,0.3,1.2,0.3,1.9c0,1.5,0,3.1,0,4.6v0.1c-0.9,0-1.8,0-2.7,0
			c0-0.1,0-0.1,0-0.1c0-1.5,0-2.9,0-4.4c0-0.3-0.1-0.7-0.2-1c-0.2-0.5-0.7-0.7-1.2-0.7c-0.7,0-1.2,0.4-1.4,1.1
			c-0.1,0.2-0.1,0.4-0.1,0.7c0,1.4,0,2.9,0,4.3c0,0,0,0.1,0,0.2C-434,377.9-434.9,377.9-435.9,377.9z"/>
		<path d="M-440.1,369.6c0.9,0,1.8,0,2.7,0c0,2.7,0,5.5,0,8.2h-0.1c-0.8,0-1.6,0-2.5,0c-0.1,0-0.1,0-0.1-0.1c0-2.6,0-5.3,0-7.9
			C-440.1,369.8-440.1,369.6-440.1,369.6z"/>
	</g>
</g>
<rect x="-440.6" y="364.7" class="st0" width="13.3" height="14.1"/>
</svg>
