<?xml version="1.0" encoding="utf-8"?>
<!-- Generator: Adobe Illustrator 19.0.0, SVG Export Plug-In . SVG Version: 6.00 Build 0)  -->
<svg version="1.1" id="Layer_1" xmlns="http://www.w3.org/2000/svg" xmlns:xlink="http://www.w3.org/1999/xlink" x="0px" y="0px"
	 viewBox="-440.6 364.7 13.3 14.1" style="enable-background:new -440.6 364.7 13.3 14.1;" xml:space="preserve">
<style type="text/css">
	.st0{fill:none;}
</style>
<g id="BTHBJP.tif">
	<g>
		<path d="M-431.4,378.4c-1.7,0-3.4,0-5.1,0c-0.2,0-0.3-0.1-0.5-0.1c-1.7-0.1-3-1.2-3.4-2.9c-0.1-0.3-0.1-0.7-0.2-1
			c0-1.8,0-3.5,0-5.3c0-0.2,0.1-0.3,0.1-0.5c0.1-1.7,1.2-3,2.8-3.4c0.4-0.1,0.7-0.1,1.1-0.2c1.8,0,3.5,0,5.3,0
			c0.2,0,0.3,0.1,0.5,0.1c1.9,0.1,3.4,1.5,3.4,3.4c0.1,2.1,0.1,4.2,0,6.3c0,1.7-1.1,2.9-2.7,3.3
			C-430.5,378.3-430.9,378.3-431.4,378.4z M-428.5,371.8c0-0.9,0-1.9,0-2.8c-0.1-1.6-0.9-2.5-2.5-2.5c-1.9,0-3.8,0-5.6,0
			c-1.6,0-2.5,0.9-2.5,2.5c0,1.9,0,3.8,0,5.6c0,1.6,1,2.5,2.5,2.5c1.9,0,3.8,0,5.7,0c1.6,0,2.5-1,2.5-2.5
			C-428.5,373.7-428.5,372.7-428.5,371.8z"/>
		<path d="M-430.5,371.8c0,1.9-1.5,3.4-3.4,3.4s-3.4-1.5-3.4-3.4s1.5-3.4,3.4-3.4S-430.5,369.9-430.5,371.8z M-431.7,371.8
			c0-1.2-1-2.2-2.2-2.2s-2.2,1-2.2,2.2s1,2.2,2.2,2.2S-431.7,373-431.7,371.8z"/>
		<path d="M-430.4,367.5c0.5,0,0.8,0.3,0.8,0.8c0,0.4-0.4,0.8-0.8,0.8s-0.8-0.4-0.8-0.8C-431.2,367.8-430.8,367.5-430.4,367.5z"/>
	</g>
</g>
<rect x="-440.6" y="364.7" class="st0" width="13.3" height="14.1"/>
</svg>
