<?xml version="1.0" encoding="utf-8"?>
<!-- Generator: Adobe Illustrator 19.0.0, SVG Export Plug-In . SVG Version: 6.00 Build 0)  -->
<svg version="1.1" id="Layer_1" xmlns="http://www.w3.org/2000/svg" xmlns:xlink="http://www.w3.org/1999/xlink" x="0px" y="0px"
	 viewBox="-248 249.9 13.3 14.1" style="enable-background:new -248 249.9 13.3 14.1;" xml:space="preserve">
<style type="text/css">
	.st0{fill:none;}
	.st1{fill-rule:evenodd;clip-rule:evenodd;fill:#181616;}
</style>
<rect x="-248" y="249.9" class="st0" width="13.3" height="14.1"/>
<path class="st1" d="M-241.4,250.5c-3.7,0-6.6,3-6.6,6.7c0,2.9,1.9,5.4,4.5,6.3c0.3,0.1,0.5-0.1,0.5-0.3c0-0.2,0-0.6,0-1.1
	c-1.8,0.4-2.2-0.9-2.2-0.9c-0.3-0.8-0.7-1-0.7-1c-0.6-0.4,0-0.4,0-0.4c0.7,0,1,0.7,1,0.7c0.6,1,1.6,0.7,1.9,0.6
	c0.1-0.4,0.2-0.7,0.4-0.9c-1.5-0.2-3-0.7-3-3.3c0-0.7,0.3-1.3,0.7-1.8c-0.1-0.2-0.3-0.8,0.1-1.8c0,0,0.6-0.2,1.8,0.7
	c0.5-0.1,1.1-0.2,1.7-0.2c0.6,0,1.1,0.1,1.7,0.2c1.3-0.9,1.8-0.7,1.8-0.7c0.4,0.9,0.1,1.6,0.1,1.8c0.4,0.5,0.7,1.1,0.7,1.8
	c0,2.6-1.6,3.1-3,3.3c0.2,0.2,0.5,0.6,0.5,1.2c0,0.9,0,1.6,0,1.8c0,0.2,0.1,0.4,0.5,0.3c2.6-0.9,4.5-3.4,4.5-6.3
	C-234.7,253.4-237.7,250.5-241.4,250.5z"/>
</svg>
